<?xml version="1.0" standalone="no"?>
<!DOCTYPE svg PUBLIC "-//W3C//DTD SVG 20010904//EN"
 "http://www.w3.org/TR/2001/REC-SVG-20010904/DTD/svg10.dtd">
<svg version="1.0" xmlns="http://www.w3.org/2000/svg"
 width="759.000000pt" height="467.000000pt" viewBox="0 0 759.000000 467.000000"
 preserveAspectRatio="xMidYMid meet">
<metadata>
Created by potrace 1.15, written by Peter Selinger 2001-2017
</metadata>
<g transform="translate(0.000000,467.000000) scale(0.100000,-0.100000)"
fill="#000000" stroke="none">
<path d="M10 4663 c0 -2 0 -1049 0 -2328 l0 -2325 3785 0 3785 0 0 2325 0
2325 -3785 3 c-2082 1 -3785 1 -3785 0z m7543 -31 c16 -17 17 -189 15 -2313
l-3 -2294 -3754 -3 c-3483 -2 -3756 -1 -3773 15 -17 15 -18 100 -18 2308 0
1260 3 2295 7 2298 3 4 1695 7 3758 7 3624 0 3752 -1 3768 -18z"/>
<path d="M235 4530 c4 -7 797 -10 2345 -10 1548 0 2341 3 2345 10 4 7 -780 10
-2345 10 -1565 0 -2349 -3 -2345 -10z"/>
<path d="M165 4509 c-11 -5 -28 -24 -38 -40 -16 -29 -17 -128 -17 -1647 l0
-1617 22 -41 c42 -80 -41 -75 1098 -72 l1015 3 0 22 c0 12 3 25 8 29 9 9 10
1548 0 1557 -8 9 -8 75 0 84 10 9 9 271 -1 276 -9 6 -8 64 1 74 9 8 9 268 0
276 -8 9 -8 75 0 84 9 8 9 258 0 266 -8 9 -8 75 0 84 10 9 9 291 -1 297 -8 5
-9 53 0 61 2 3 624 5 1382 5 l1377 0 -1 -689 c0 -455 3 -692 10 -696 7 -4 10
258 10 800 l0 805 -25 40 c-24 38 -38 51 -32 30 1 -6 -832 -10 -2393 -10
-2119 0 -2395 2 -2392 15 3 17 4 17 -23 4z m208 -78 c6 -6 8 -11 3 -11 -4 0 3
-14 15 -31 25 -36 31 -85 11 -102 -17 -13 -93 -13 -120 2 -25 13 -57 60 -57
81 0 9 10 29 22 45 18 26 26 30 68 29 25 -1 51 -6 58 -13z m1854 -325 c6 -6 6
-207 0 -212 -5 -6 -1639 -5 -1644 0 -6 6 -6 204 0 213 5 8 1636 7 1644 -1z
m-1810 -19 c21 -21 21 -173 0 -194 -21 -21 -163 -21 -184 0 -10 10 -15 36 -15
83 1 38 2 72 3 77 1 4 2 12 3 18 3 24 35 34 106 32 49 -1 77 -6 87 -16z m727
-367 c11 -11 89 -14 99 -3 4 3 23 6 42 6 19 0 38 -3 42 -6 9 -9 61 -9 66 1 6
8 59 8 73 0 14 -9 9 -74 -6 -70 -7 2 -20 0 -29 -3 -20 -8 -170 -9 -178 -1 -3
3 -11 3 -16 -1 -6 -4 -33 -5 -60 -4 -35 2 -47 -1 -42 -9 4 -6 24 -10 46 -9 21
2 41 0 45 -4 4 -3 11 -4 17 0 6 3 26 6 46 6 33 0 35 -1 35 -34 0 -33 -1 -33
-43 -30 -23 1 -49 -3 -57 -10 -21 -17 -55 -18 -82 -2 -13 8 -33 13 -44 11 -18
-2 -21 2 -22 28 0 39 11 55 31 47 11 -4 14 -3 9 6 -5 7 -14 10 -22 7 -27 -10
-39 49 -15 77 13 16 47 15 65 -3z m-417 -23 c21 -21 21 -113 0 -134 -21 -21
-113 -21 -134 0 -10 10 -16 33 -16 62 0 64 26 90 88 89 27 -1 53 -8 62 -17z
m236 5 c12 -11 14 -65 3 -93 -4 -9 -6 -22 -4 -30 2 -10 -5 -13 -24 -11 -15 2
-33 0 -40 -4 -20 -13 -58 -11 -70 3 -14 17 -14 119 0 136 12 15 117 14 135 -1z
m-566 -25 c7 -8 7 -122 0 -134 -6 -9 -134 -9 -143 0 -8 7 -8 122 -1 134 5 9
135 9 144 0z m736 -312 c9 -4 25 -4 35 0 24 10 73 12 79 2 3 -4 58 -7 123 -6
65 1 122 -1 127 -4 5 -3 8 -18 7 -34 -1 -21 -6 -27 -19 -25 -9 2 -24 0 -34 -4
-9 -3 -34 -6 -56 -5 -47 3 -78 -23 -73 -61 2 -17 -1 -22 -14 -20 -9 1 -19 -2
-22 -7 -3 -5 -15 -7 -26 -4 -11 3 -28 2 -37 -2 -23 -10 -63 -10 -85 0 -10 4
-25 5 -33 2 -19 -8 -29 10 -28 53 0 19 -2 39 -5 44 -8 13 -7 60 1 72 7 12 32
11 60 -1z m-411 -23 c29 -29 29 -104 0 -135 -27 -29 -93 -29 -125 1 -29 28
-29 103 1 135 27 29 95 29 124 -1z m230 0 c14 -14 14 -110 0 -124 -12 -12 -82
-17 -89 -6 -2 5 -8 6 -13 3 -5 -3 -12 0 -16 6 -10 18 -8 107 4 121 12 16 99
15 114 0z m55 -305 c6 -7 6 -217 0 -224 -7 -6 -217 -6 -224 0 -3 4 -6 208 -3
230 0 4 222 -2 227 -6z m153 -18 c8 0 30 1 48 3 18 3 35 1 38 -3 3 -5 27 -7
55 -5 27 1 53 -2 57 -8 9 -12 8 -53 -1 -62 -7 -7 -268 -7 -275 0 -4 5 -7 65
-3 79 1 2 16 1 34 -1 17 -2 39 -3 47 -3z m-433 -32 c21 -21 21 -113 0 -134
-10 -10 -33 -16 -62 -16 -64 0 -91 26 -88 88 2 64 19 80 83 79 32 -1 58 -8 67
-17z m421 -71 c7 -4 49 -6 94 -5 l82 2 0 -34 c0 -33 -1 -33 -43 -30 -23 1 -49
-3 -57 -10 -21 -17 -55 -18 -82 -2 -13 8 -32 13 -44 11 -18 -3 -21 2 -20 35 0
20 1 38 1 40 2 5 58 0 69 -7z m-788 -121 c11 -10 20 -14 20 -10 0 5 5 4 11 -2
12 -12 16 -109 6 -119 -8 -8 -136 -8 -144 0 -10 10 -7 81 3 82 24 2 45 18 42
33 -6 40 26 49 62 16z m27 -258 c4 -3 8 -35 8 -72 l-1 -67 -69 0 -69 0 0 64
c1 36 3 69 7 74 5 9 109 10 124 1z m0 -529 c16 -17 24 -76 11 -84 -5 -3 -6 -9
-3 -14 10 -16 -27 -33 -72 -33 -54 0 -80 23 -77 69 1 16 3 30 3 32 1 1 0 4 -1
6 -2 2 5 12 14 22 21 24 102 24 125 2z m-70 -261 c7 -4 14 -4 17 1 2 4 17 7
32 7 23 -1 28 -6 29 -29 0 -15 -3 -30 -7 -32 -5 -3 -5 -11 -1 -17 26 -42 -17
-88 -48 -51 -10 12 -15 12 -31 -3 -20 -18 -24 -18 -44 -2 -12 10 -12 38 -1 56
4 6 4 14 -1 17 -6 3 -8 59 -3 61 7 3 50 -3 58 -8z"/>
<path d="M3606 2753 c-4 -5 -11 -8 -14 -8 -31 -1 -93 -63 -96 -97 -1 -3 -4
-10 -8 -14 -13 -12 -8 -68 6 -86 12 -17 69 -18 943 -18 511 0 933 3 936 7 10
9 68 10 74 1 5 -10 167 -11 176 -1 10 9 58 10 63 1 7 -10 171 -11 177 0 6 9
64 8 74 -1 9 -10 171 -9 177 1 5 9 53 8 63 -1 3 -4 160 -7 348 -7 252 0 344 3
353 12 13 13 17 90 5 102 -5 4 -8 11 -8 14 -2 29 -64 85 -97 87 -3 0 -10 3
-14 8 -4 4 -141 7 -304 7 l-297 0 1 -22 c1 -17 -5 -23 -19 -23 -14 0 -20 6
-19 23 l1 22 -227 0 -227 0 1 -22 c1 -17 -5 -23 -19 -23 -14 0 -20 6 -19 23
l1 22 -1012 0 c-556 0 -1015 -3 -1019 -7z m2732 -57 c26 -24 70 -35 85 -19 9
8 81 8 95 -1 14 -8 92 -5 97 4 5 9 37 6 53 -4 6 -4 17 -4 24 0 16 10 60 10 84
-1 10 -5 33 -9 49 -10 23 0 30 -5 30 -20 0 -16 -6 -20 -29 -19 -16 1 -36 -6
-45 -15 -19 -19 -84 -20 -106 -1 -8 7 -21 10 -30 7 -8 -4 -17 -2 -20 4 -4 5
-11 7 -16 3 -6 -3 -69 -5 -141 -5 -76 1 -127 -2 -124 -7 10 -17 -33 -45 -69
-45 -49 0 -81 31 -79 78 4 78 85 107 142 51z m-271 -9 c22 -19 22 -80 0 -105
-19 -21 -71 -21 -95 1 -21 20 -21 81 1 105 19 21 71 21 94 -1z"/>
<path d="M5926 1931 c-4 -5 -13 -8 -20 -5 -8 3 -17 0 -21 -5 -3 -6 -10 -9 -15
-6 -5 3 -22 -2 -37 -12 -15 -10 -30 -17 -33 -16 -16 5 -144 -75 -188 -118 -47
-46 -127 -159 -122 -174 1 -3 -6 -17 -14 -31 -9 -13 -14 -24 -10 -24 4 0 1 -7
-6 -15 -6 -8 -9 -19 -6 -24 4 -5 1 -13 -5 -16 -5 -4 -8 -13 -5 -21 3 -7 1 -16
-4 -19 -6 -4 -10 -37 -10 -75 0 -38 4 -71 10 -75 5 -3 7 -12 4 -19 -3 -8 0
-17 5 -21 6 -3 9 -11 5 -16 -3 -5 0 -16 6 -24 7 -8 10 -15 6 -15 -4 0 1 -11
10 -24 8 -14 15 -28 14 -31 -5 -18 82 -144 130 -189 48 -44 183 -128 186 -115
0 2 8 -2 17 -10 10 -7 17 -10 17 -6 0 4 7 2 15 -5 8 -7 15 -9 15 -5 0 4 7 2
15 -5 8 -7 21 -10 30 -7 8 4 17 2 20 -3 8 -13 142 -13 150 0 3 5 12 7 19 4 8
-3 17 0 21 5 3 6 11 9 16 5 5 -3 17 0 26 8 9 7 18 12 20 10 9 -7 167 84 207
120 41 35 128 155 128 175 0 4 5 17 11 28 6 11 12 23 13 28 1 4 3 9 4 12 1 3
3 9 4 14 0 5 4 13 9 17 4 4 7 65 7 136 0 102 -3 134 -16 153 -9 14 -13 25 -10
25 4 0 -1 11 -10 24 -8 14 -16 29 -16 33 1 22 -68 124 -113 168 -41 42 -170
129 -170 115 0 -2 -11 3 -25 10 -14 8 -28 15 -32 16 -5 1 -10 3 -13 4 -3 1 -9
4 -15 5 -5 1 -13 4 -17 5 -5 2 -12 4 -18 5 -5 1 -18 5 -28 10 -10 4 -23 2 -32
-5 -13 -11 -15 -54 -15 -291 1 -154 -1 -283 -4 -287 -2 -4 -16 -7 -31 -7 l-26
2 1 274 1 275 -25 23 c-14 14 -26 18 -30 12z"/>
<path d="M6825 1889 c-4 -6 3 -21 16 -35 22 -23 26 -24 182 -24 145 0 161 2
188 21 28 20 29 22 12 35 -23 17 -388 20 -398 3z"/>
<path d="M6942 848 c-7 -7 -12 -9 -12 -5 0 18 -92 -58 -120 -98 -17 -25 -28
-45 -24 -45 3 0 1 -6 -5 -14 -6 -8 -11 -18 -10 -22 1 -5 -1 -17 -5 -26 -5 -10
-5 -26 0 -35 4 -10 6 -22 5 -27 -1 -4 4 -14 10 -22 6 -8 9 -14 5 -14 -18 0 62
-105 100 -131 24 -16 44 -27 44 -23 0 3 11 -1 25 -10 31 -21 99 -21 130 0 14
9 25 13 25 10 0 -4 20 7 45 24 40 27 116 120 99 120 -3 0 -1 6 5 14 6 8 11 18
10 22 -1 5 1 17 5 27 5 9 5 25 1 35 -5 9 -9 22 -10 27 -1 6 -3 13 -5 18 -1 4
-3 11 -4 15 0 5 -15 32 -33 60 -23 38 -45 58 -85 79 -93 48 -93 48 -95 -97 -1
-121 -2 -124 -23 -124 -22 0 -23 2 -21 106 2 128 -17 176 -57 136z"/>
<path d="M2035 120 c4 -6 14 -10 23 -9 10 1 25 -1 35 -6 9 -4 26 -5 37 -2 11
3 23 1 26 -5 3 -5 23 -8 43 -7 20 2 42 -1 49 -5 7 -4 37 -6 67 -5 30 1 58 0
62 -4 8 -9 378 -9 386 0 4 4 32 5 62 4 30 -1 60 1 67 5 7 4 31 7 54 5 23 -1
45 2 48 7 3 5 16 7 30 5 13 -3 27 0 30 6 4 5 13 8 21 4 8 -3 15 0 15 6 0 8
-149 11 -531 11 -367 0 -528 -3 -524 -10z"/>
<path d="M4425 109 c4 -6 35 -9 74 -8 38 1 73 -1 79 -5 7 -4 57 -6 112 -5 56
1 104 -1 107 -5 8 -8 768 -8 776 0 3 4 51 6 107 5 55 -1 105 1 112 5 6 4 37 6
69 5 32 -1 60 2 64 8 4 8 -217 11 -750 11 -532 0 -754 -3 -750 -11z"/>
</g>
</svg>
