<?xml version="1.0" encoding="UTF-8" standalone="no"?>
<svg width="54px" height="26px" viewBox="0 0 54 26" version="1.1" xmlns="http://www.w3.org/2000/svg" xmlns:xlink="http://www.w3.org/1999/xlink">
    <!-- Generator: Sketch 47.1 (45422) - http://www.bohemiancoding.com/sketch -->
    <title>apple-pay-payment-mark</title>
    <desc>Created with Sketch.</desc>
    <defs></defs>
    <g id="Page-1" stroke="none" stroke-width="1" fill="none" fill-rule="evenodd">
        <g id="Safari-need-" transform="translate(-899.000000, -114.000000)" fill-rule="nonzero" fill="#FFFFFF">
            <g id="apple-pay-payment-mark" transform="translate(899.000000, 114.000000)">
                <path d="M10.7906678,3.27395028 C11.4909718,2.42638906 11.9635758,1.2484911 11.8350518,0.0746339557 C10.8230518,0.116052323 9.59954385,0.749450282 8.87899985,1.59398089 C8.22625985,2.34355232 7.66156385,3.54367477 7.81741185,4.69429722 C8.94275585,4.78117477 10.0903638,4.12151151 10.7906678,3.27395028 Z M13.6981438,10.7231952 C13.6758798,8.18455232 15.7727438,6.96321559 15.8698958,6.90260334 C14.6868678,5.1852564 12.8521118,4.94684824 12.1983598,4.92058294 C10.6348198,4.76602171 9.14414385,5.83986865 8.35377185,5.83986865 C7.56036385,5.83986865 6.33989185,4.94482783 5.04048385,4.97210334 C3.33627585,4.99634824 1.76463985,5.96109314 0.887235846,7.48347069 C-0.878704154,10.5575217 0.438919846,15.0973789 2.16336785,17.5834911 C3.00737585,18.800787 4.01127985,20.1686033 5.33396385,20.1191033 C6.60705985,20.0696033 7.08472385,19.2967972 8.62296385,19.2967972 C10.1581678,19.2947768 10.5923158,20.1170829 11.9332158,20.0938482 C13.3014398,20.0645523 14.1697358,18.8512972 15.0086838,17.6279401 C15.9731198,16.2187054 16.3728598,14.8498789 16.3930998,14.781185 C16.3657758,14.7630013 13.7285038,13.7588584 13.6981438,10.7231952 Z M29.9872958,3.27294008 C29.4772478,2.78198089 28.8194478,2.40012375 28.0321118,2.13747069 C27.2518598,1.87784824 26.3147478,1.74652171 25.2470878,1.74652171 C24.5632089,1.74348844 23.8797015,1.77890165 23.1998118,1.85259314 C22.6329833,1.91574029 22.0680607,1.99490469 21.5057238,2.0899911 L21.3407678,2.11827681 L21.3407678,19.9655523 L22.9731238,19.9655523 L22.9731238,12.4466033 C23.5226398,12.5405523 24.1521038,12.5900523 24.8463358,12.5900523 C25.7702918,12.5900523 26.6355518,12.4718584 27.4188398,12.2405217 C28.1724441,12.026596 28.8742931,11.6611683 29.4812958,11.1666748 C30.0659439,10.6788411 30.5361298,10.0687876 30.8586278,9.37962375 C31.1925878,8.67248089 31.3626038,7.84108294 31.3626038,6.90563396 C31.3626038,6.13181763 31.2401518,5.43578702 31.0013198,4.836736 C30.7704303,4.25356116 30.425747,3.72200141 29.9872958,3.27294008 L29.9872958,3.27294008 Z M28.4875118,10.0897972 C27.6495758,10.7908789 26.4635118,11.1464707 24.9586678,11.1464707 C24.5447598,11.1464707 24.1531158,11.128287 23.7938558,11.0949503 C23.517518,11.0699938 23.2434856,11.0240651 22.9741358,10.9575625 L22.9741358,3.36789926 C23.1896918,3.3285013 23.4568598,3.29112375 23.7705798,3.25778702 C24.1682958,3.21535845 24.6469718,3.19414416 25.1954758,3.19414416 C25.8253904,3.18787574 26.453115,3.26913452 27.0605918,3.43558294 C27.5783003,3.57772282 28.0647101,3.81552757 28.4945958,4.13666457 C28.8862398,4.43972579 29.1938878,4.83370538 29.4074198,5.3085013 C29.6229758,5.78935845 29.7312598,6.36315436 29.7312598,7.01271559 C29.7302478,8.36133804 29.3112798,9.39679722 28.4875118,10.0897972 L28.4875118,10.0897972 Z M41.1192958,18.2946748 C41.1010798,17.7895727 41.0939958,17.2824503 41.0939958,16.7773482 L41.0939958,11.816236 C41.0939958,11.2282972 41.0342878,10.628236 40.9179078,10.0322156 C40.8057296,9.4391743 40.5758848,8.87451219 40.2418918,8.37144008 C39.9099558,7.87441967 39.4454478,7.46427681 38.8645598,7.15111355 C38.2836718,6.83896049 37.5287198,6.68136865 36.6189318,6.68136865 C35.9550598,6.68136865 35.3063678,6.767236 34.6941078,6.93796049 C34.0511837,7.12257169 33.4429805,7.41128827 32.8937598,7.79259314 L32.7611878,7.88452171 L33.3127278,9.17253191 L33.5120918,9.03817477 C33.9474333,8.74650389 34.4234669,8.52048283 34.9248438,8.36739926 C35.4316206,8.20913852 35.9594116,8.12808401 36.4904078,8.12697069 C37.1704718,8.12697069 37.7139158,8.25021559 38.1015118,8.49266457 C38.4951798,8.73814416 38.7916958,9.04221559 38.9829638,9.39780743 C39.1823278,9.76451151 39.3128758,10.1544503 39.3705598,10.5595421 C39.4322918,10.9807972 39.4616398,11.3576033 39.4616398,11.6808686 L39.4616398,11.8243176 C37.0419478,11.8132054 35.1525438,12.2152666 33.8976638,13.0224197 C32.5810518,13.8689707 31.9131318,15.0741442 31.9131318,16.6035931 C31.9131318,17.0440421 31.9920678,17.4875217 32.1479158,17.9259503 C32.3057878,18.3694299 32.5456318,18.7664401 32.8593518,19.1058686 C33.1750958,19.449338 33.5829318,19.7291646 34.0707158,19.9382768 C34.5564758,20.1494095 35.1282558,20.2554809 35.7668278,20.2554809 C36.6709646,20.2705789 37.5606287,20.0277047 38.3312358,19.5554095 C38.6672198,19.3483176 38.9657598,19.1129401 39.2207838,18.8593789 C39.3295103,18.7503544 39.4331801,18.6364188 39.5314678,18.5179299 L39.5942118,18.5179299 L39.7439878,19.9665625 L41.3176478,19.9665625 L41.2741318,19.7342156 C41.1877402,19.258734 41.1359926,18.7776262 41.1192958,18.2946748 L41.1192958,18.2946748 Z M39.4616398,15.7530013 C39.4616398,15.9267564 39.4201478,16.1651646 39.3412118,16.4510523 C39.2355214,16.7603718 39.0877353,17.0537198 38.9020038,17.3228584 C38.4885734,17.9271281 37.8881946,18.3795406 37.1927358,18.6108686 C36.7706907,18.7494033 36.3284451,18.8166638 35.8842198,18.8098789 C35.5912521,18.8099545 35.3003937,18.7604255 35.0240198,18.6633993 C34.7557285,18.5702215 34.5094528,18.4230622 34.3004398,18.2310319 C34.0815403,18.0243588 33.9084767,17.7741717 33.7924158,17.4966135 C33.6638918,17.2006238 33.5991238,16.8339197 33.5991238,16.4076135 C33.5991238,15.7095625 33.7873558,15.142838 34.1567358,14.7286544 C34.5545332,14.2872842 35.0540026,13.9492324 35.6119918,13.7437054 C36.2441354,13.5064371 36.9056083,13.3558902 37.5783078,13.296185 C38.2042111,13.2359284 38.8328589,13.2086151 39.4616398,13.2143584 L39.4616398,15.7530013 L39.4616398,15.7530013 Z M52.1976598,6.97129722 L49.1515398,15.2377972 C48.9612838,15.736838 48.7841838,16.2399197 48.6222638,16.7298686 C48.5433278,16.974338 48.4684398,17.2056748 48.3945638,17.4258993 L48.3368798,17.4258993 C48.2607826,17.1846582 48.1831945,16.9438883 48.1041198,16.7036033 C47.9462478,16.2187054 47.7762318,15.7428993 47.6021678,15.2893176 L44.3445398,6.97129722 L42.6028878,6.97129722 L47.2631478,18.9300931 C47.3855998,19.2180013 47.4038158,19.350338 47.4038158,19.4038789 C47.4038158,19.4200421 47.3977438,19.5180319 47.2611238,19.8817054 C47.006587,20.5306499 46.6746181,21.1466024 46.2723998,21.716236 C45.8989718,22.2233584 45.5569158,22.6355217 45.2523038,22.9395931 C44.8981038,23.2931646 44.5327718,23.5830931 44.1613678,23.8023074 C43.7818678,24.0255625 43.4357638,24.2063891 43.1291278,24.3427666 L42.9530398,24.4215625 L43.5207718,25.7984707 L43.7009078,25.7317972 C43.8486598,25.676236 44.1259478,25.5499605 44.5469398,25.3448891 C44.9719798,25.1357768 45.4425598,24.8044299 45.9445118,24.3558993 C46.3893175,23.9649027 46.7842633,23.5207835 47.1204558,23.0335421 C47.4645358,22.5405625 47.8086158,21.9617156 48.1466238,21.3192258 C48.4805838,20.6777462 48.8145438,19.9483789 49.1404078,19.1493074 C49.4662718,18.3461952 49.8164238,17.4481238 50.1777078,16.4833789 L53.9413358,6.97129722 L52.1976598,6.97129722 L52.1976598,6.97129722 Z" id="Shape"></path>
            </g>
        </g>
    </g>
</svg>