<?xml version="1.0" encoding="UTF-8" standalone="no"?>
<svg width="55px" height="22px" viewBox="0 0 55 22" version="1.1" xmlns="http://www.w3.org/2000/svg" xmlns:xlink="http://www.w3.org/1999/xlink">
    <!-- Generator: Sketch 48.1 (47250) - http://www.bohemiancoding.com/sketch -->
    <title>android-pay-caption</title>
    <desc>Created with Sketch.</desc>
    <defs></defs>
    <g id="Page-1" stroke="none" stroke-width="1" fill="none" fill-rule="evenodd">
        <g id="android-pay-caption">
            <g id="GPay" transform="translate(0.348632, 0.348632)" fill-rule="nonzero">
                <g id="Pay" transform="translate(23.486759, 1.100941)" fill="#5F6368">
                    <path d="M2.19921581,2.06348936 L2.19921581,7.50756235 L5.5565396,7.50756235 C6.35628799,7.50756235 7.01763755,7.23878068 7.54083743,6.70121736 C8.07774015,6.1648984 8.34681437,5.5252976 8.34681437,4.78490367 C8.34681437,4.05944207 8.07774015,3.42730741 7.54083743,2.88974409 C7.01763755,2.33849283 6.35628799,2.062245 5.5565396,2.062245 L2.19921581,2.062245 L2.19921581,2.06348936 Z M2.19921581,9.42387603 L2.19921581,15.7390007 L0.193616276,15.7390007 L0.193616276,0.147175675 L5.51281504,0.147175675 C6.86453929,0.147175675 8.01184188,0.597633828 8.95721423,1.49730577 C9.91653859,2.39697772 10.3960139,3.49325847 10.3960139,4.78490367 C10.3960139,6.10641351 9.91641401,7.21016041 8.95721423,8.09490004 C8.02666588,8.98088403 6.87811757,9.42263167 5.51281504,9.42263167 L2.19921581,9.42263167 L2.19921581,9.42387603 Z" id="Fill-1"></path>
                    <path d="M12.4227657,12.4725445 C12.4227657,12.9951755 12.6445027,13.4307013 13.0881015,13.779122 C13.5314511,14.1275427 14.0509139,14.3017529 14.6464897,14.3017529 C15.4897135,14.3017529 16.2408791,13.9892943 16.9023532,13.3659947 C17.5639519,12.7413261 17.8939415,12.0083983 17.8939415,11.1672113 C17.2685931,10.6732006 16.3965933,10.4268174 15.2779421,10.4268174 C14.4633697,10.4268174 13.7844556,10.6234262 13.2400786,11.0153994 C12.695577,11.4072483 12.4227657,11.8914285 12.4227657,12.4725445 M15.0175879,4.72018453 C16.4999876,4.72018453 17.6697131,5.11589087 18.5281345,5.90730353 C19.3851857,6.6987162 19.8135868,7.78379772 19.8135868,9.16254808 L19.8135868,15.7389883 L17.8953119,15.7389883 L17.8953119,14.2582004 L17.8079872,14.2582004 C16.9795875,15.4775483 15.8746392,16.0874089 14.4945125,16.0874089 C13.3173129,16.0874089 12.3319531,15.7389883 11.5408001,15.0421469 C10.7486506,14.3453056 10.3525136,13.4742539 10.3525136,12.4289919 C10.3525136,11.325245 10.7697032,10.4478471 11.6055773,9.79468273 C12.4414514,9.14139397 13.55649,8.81412741 14.9516896,8.81412741 C16.1424676,8.81412741 17.1240903,9.03189033 17.8939415,9.46741617 L17.8939415,9.00949185 C17.8939415,8.31265052 17.6173931,7.72157973 17.0656663,7.23503516 C16.5124447,6.74849057 15.8671648,6.50584047 15.1259651,6.50584047 C14.0060681,6.50584047 13.1204901,6.97745273 12.4664902,7.92192163 L10.6999432,6.81070856 C11.6740915,5.41702588 13.1128912,4.72018453 15.0175879,4.72018453" id="Fill-3"></path>
                    <g id="Group-7" transform="translate(20.113231, 5.012596)">
                        <polygon id="Fill-5" points="10.7087554 0.0560086228 4.01565872 15.4300707 1.94515749 15.4300707 4.43048148 10.0507044 0.0267579367 0.0560086228 2.20675743 0.0560086228 5.38955668 7.72126337 5.43315668 7.72126337 8.52875596 0.0560086228"></polygon>
                    </g>
                </g>
                <g id="G">
                    <path d="M17.5820197,9.16347608 C17.5820197,8.5325858 17.5284541,7.92409397 17.4275512,7.34173372 L8.96915323,7.34173372 L8.96915323,10.7923427 L13.8137349,10.7923427 C13.6057007,11.9171193 12.9766151,12.8741562 12.0223982,13.5150013 L12.0223982,15.7560929 L14.9137004,15.7560929 C16.6066257,14.195666 17.5820197,11.8898678 17.5820197,9.16347608" id="Fill-8" fill="#4285F4"></path>
                    <path d="M8.96914076,17.9187773 C11.3895631,17.9187773 13.4275512,17.124876 14.913688,15.7560804 L12.0223858,13.5149889 C11.2176545,14.0562853 10.1812205,14.3723527 8.96914076,14.3723527 C6.62968988,14.3723527 4.64402177,12.7969935 3.9339648,10.6741161 L0.955462635,10.6741161 L0.955462635,12.9824031 C2.43163372,15.9091367 5.46494729,17.9187773 8.96914076,17.9187773" id="Fill-10" fill="#34A853"></path>
                    <path d="M3.93397725,10.6740912 C3.75210301,10.1327948 3.65244589,9.555412 3.65244589,8.95936379 C3.65244589,8.36331556 3.75210301,7.78593275 3.93397725,7.24463635 L3.93397725,4.9363494 L0.955475092,4.9363494 C0.345075233,6.14586687 1.24571399e-05,7.51217364 1.24571399e-05,8.95936379 C1.24571399e-05,10.4065539 0.345075233,11.7729851 0.955475092,12.9823782 L3.93397725,10.6740912 Z" id="Fill-12" fill="#FABB05"></path>
                    <path d="M8.96914076,3.54642468 C10.2908433,3.54642468 11.4755173,4.00061592 12.4098028,4.89033299 L12.4098028,4.89157735 L14.9697451,2.33441849 C13.415094,0.888472709 11.3883173,0 8.96914076,0 C5.46494729,0 2.43163372,2.00964065 0.955462635,4.93637428 L3.9339648,7.24466123 C4.64402177,5.12178385 6.62968988,3.54642468 8.96914076,3.54642468" id="Fill-14" fill="#E94235"></path>
                </g>
            </g>
            <polygon id="Shape" points="0 0 55.0470915 0 55.0470915 24 0 24"></polygon>
        </g>
    </g>
</svg>